<svg width="180" height="68" viewBox="0 0 180 68" fill="none" xmlns="http://www.w3.org/2000/svg">
<path d="M10.7122 49.4297C11.451 50.4075 11.8204 51.5374 11.7986 52.8194C11.6031 59.9463 1.15162 59.9029 0.956058 52.8194C0.912601 51.5374 1.28199 50.4075 2.08594 49.4297H0V46.9744H5.06276V45.3447H7.77883V46.9744H12.8199V49.4297H10.7339H10.7122ZM2.82472 67.2254C1.93384 67.2254 1.3689 66.5518 1.3689 65.574V59.8594H4.06324V64.3355C4.06324 64.618 4.17189 64.7484 4.43263 64.7484H17.5567V67.2471H2.84645L2.82472 67.2254ZM3.4983 52.7325C3.4983 57.0564 9.27811 56.9695 9.34329 52.8194C9.38675 48.604 3.4983 48.6475 3.4983 52.7325ZM17.4046 48.9082C17.1656 48.9082 17.0135 49.0603 17.0135 49.3428V61.3152H14.2757V48.3867C14.2757 47.1917 14.9493 46.4312 16.0357 46.4312H19.0125V48.9082H17.4046Z" fill="white"/>
<path d="M30.5694 56.7737V59.2073H35.6321C36.6099 59.2073 37.1097 59.7505 37.1097 60.8587V67.7684H34.3719V62.1407C34.3719 61.8582 34.2415 61.6844 33.9808 61.6844H21.6389V59.2073H27.7881V56.7737H20.2266V54.2097H33.9808V48.908C33.9808 48.6472 33.8069 48.4517 33.5679 48.4517H21.6172V45.9746H35.1976C36.0884 45.9746 36.6968 46.6047 36.6968 47.626V54.2097H38.5872V56.7737H30.5259H30.5694Z" fill="white"/>
<path d="M47.2598 50.4505C46.521 54.4702 44.3047 56.969 40.4805 56.5562V54.1009C43.5442 54.3181 44.8914 51.4717 45 48.4732H40.9585V45.9961H53.5611V48.4732H49.563C49.7151 52.406 51.2361 54.2964 54.0608 54.1009V56.5562C50.1497 56.9473 47.9551 54.6875 47.2598 50.4505ZM45.1956 62.9009C45.0652 56.1651 56.1468 56.1651 55.973 62.9661C55.8209 69.5499 45.3042 69.4847 45.1956 62.9009ZM48.042 62.9879C48.1507 66.2254 53.083 66.2471 53.1265 62.9227C53.1917 59.4244 47.9334 59.4895 48.042 62.9879ZM57.9285 48.4732C57.6895 48.4732 57.4939 48.647 57.4939 48.9295V58.2076H54.7344V47.9951C54.7344 46.7566 55.4297 45.9961 56.5162 45.9961H59.7537V48.4732H57.9285Z" fill="white"/>
<path d="M60.7288 58.6856V56.2085C65.596 56.0782 69.92 55.7088 69.92 48.9295C69.92 48.6253 69.7896 48.4732 69.5071 48.4732H61.2068V45.9961H71.0064C72.0928 45.9961 72.7881 46.7783 72.7881 47.9951C72.7881 57.2515 67.9644 58.8377 60.707 58.6856M75.9822 45.9961H78.7418V67.7899H75.9822V45.9961Z" fill="white"/>
<path d="M80.9827 64.9869V62.4446H89.2395V57.534H92.0208V62.4446H99.9735V64.9869H80.9609H80.9827ZM90.6519 50.0593C89.283 55.1656 87.0449 58.5987 81.8518 58.3162V55.774C85.6109 55.9261 87.8489 52.2539 88.2183 48.4732H82.7861V45.9961H97.8875V48.4732H92.9986C93.368 51.7976 95.4756 55.9261 98.8653 55.774V58.2945C93.9981 58.5987 91.7818 54.9048 90.6302 50.0593" fill="white"/>
<path d="M108.47 50.407C107.623 54.5789 105.08 56.7517 101.234 56.5779V54.0357C104.342 53.9922 106.036 51.7976 106.341 48.4732H101.734V45.9961H115.315V48.4732H110.686C111.099 52.167 112.772 54.0139 115.814 54.0357V56.5779C111.708 56.7952 109.252 54.7527 108.492 50.407M116.488 67.7681V62.1404C116.488 61.8797 116.336 61.6841 116.097 61.6841H101.712V59.2071H117.705C118.639 59.2071 119.226 59.8155 119.226 60.8585V67.7681H116.466H116.488ZM116.488 45.9961H119.247V58.4466H116.488V45.9961Z" fill="white"/>
<path d="M121.483 58.6856V56.2085C126.35 56.0782 130.674 55.7088 130.674 48.9295C130.674 48.6253 130.543 48.4732 130.261 48.4732H121.961V45.9961H131.76C132.847 45.9961 133.542 46.7783 133.542 47.9951C133.542 57.2515 128.74 58.8377 121.461 58.6856M136.736 45.9961H139.496V67.7899H136.736V45.9961Z" fill="white"/>
<path d="M141.734 55.4488H160.182V57.8824H141.734V55.4488ZM151.056 49.5169C150.013 54.0581 146.167 55.3618 142.451 54.9055V52.6023C146.145 52.624 148.188 51.2769 148.622 48.4956H143.407V46.0186H158.509V48.4956H153.446C154.141 51.5593 156.966 52.6458 159.508 52.6023V54.9273C155.815 55.2749 152.229 53.7539 151.099 49.5169M145.559 63.0538C145.667 56.7959 156.51 56.6438 156.401 63.1841C156.293 69.6593 145.45 69.3551 145.559 63.0538ZM153.533 63.1407C153.468 59.9683 148.47 60.1421 148.427 63.1407C148.362 66.2913 153.576 66.4869 153.511 63.1407H153.533Z" fill="white"/>
<path d="M170.135 58.6641V61.7061H167.375V58.6641H161.965V56.1001H176.023V58.6641H170.135ZM162.986 50.8418C163.095 44.4753 173.633 44.4753 173.807 50.7549C174.002 57.3387 162.877 57.2735 162.986 50.8418ZM164.942 67.2034C164.007 67.2034 163.421 66.5733 163.421 65.5303V60.272H166.202V64.2918C166.202 64.5526 166.332 64.7047 166.593 64.7047H180V67.2469H164.942V67.2034ZM165.724 50.7114C165.507 54.1228 171.091 54.3401 170.96 50.7549C170.874 47.6477 165.941 47.626 165.724 50.7114ZM176.74 61.1412V53.9925H174.241V51.4719H176.74V45.9746H179.478V61.1412H176.74Z" fill="white"/>
<path d="M3.70312 17.8154H6.81V24.8223L12.398 17.8154H16.2107L9.84411 25.4989L16.4799 34.1138H12.4198L6.85366 26.5467H6.81V34.1138H3.70312V17.8154Z" fill="white"/>
<path d="M24.6866 17.5391C29.547 17.5391 32.2755 20.9952 32.2755 25.9211C32.2755 30.847 29.5906 34.3977 24.6866 34.3977C19.7825 34.3977 17.0977 30.9197 17.0977 25.9211C17.0977 20.9224 19.7607 17.5391 24.6866 17.5391ZM24.6866 31.8292C27.8589 31.8292 29.0377 28.8679 29.0377 25.9211C29.0377 22.9743 27.7716 20.1075 24.6866 20.1075C21.6015 20.1075 20.3355 23.047 20.3355 25.9211C20.3355 28.7951 21.5142 31.8292 24.6866 31.8292Z" fill="white"/>
<path d="M34.4648 17.8154H38.6995C43.4435 17.8154 47.6418 19.4962 47.6418 25.9646C47.6418 32.433 43.4508 34.1138 38.6995 34.1138H34.4648V17.8154ZM37.5717 31.5453H39.3034C41.901 31.5453 44.4039 29.5153 44.4039 25.9646C44.4039 22.4139 41.8937 20.3839 39.3034 20.3839H37.5717V31.5453Z" fill="white"/>
<path d="M54.2696 17.8154H57.7767L63.8522 34.1138H60.4106L59.0791 30.3812H52.7998L51.4465 34.1138H48.2305L54.2623 17.8154H54.2696ZM55.9722 21.0824H55.9285L53.6875 27.8055H58.2132L55.9722 21.0824Z" fill="white"/>
<mask id="mask0_753_113370" style="mask-type:luminance" maskUnits="userSpaceOnUse" x="0" y="0" width="54" height="10">
<path d="M45.8444 6.91991C45.5186 7.05618 45.1868 7.18652 44.855 7.32279C46.5317 8.01004 48.3268 8.77431 50.2582 9.62152L53.9019 8.03374C53.9019 8.03374 51.5261 7.1569 48.0424 5.9779C47.3315 6.29191 46.5968 6.60591 45.8444 6.91991ZM7.89747 4.47899C3.41848 6.48742 0 8.37144 0 8.37144L4.95888 9.9059C7.41758 8.1463 9.6156 6.73625 11.5885 5.61058C11.7247 5.53356 11.861 5.45654 11.9914 5.38545C10.7413 4.97665 9.55635 4.58563 8.47808 4.22423C8.28257 4.30717 8.09298 4.39604 7.89747 4.47899ZM19.1838 0.414721C16.7725 0.989406 14.1598 1.88994 11.6596 2.88527C12.6668 3.29999 13.6325 3.68509 14.5567 4.04649C16.6955 3.01561 18.5025 2.36983 20.0251 1.99066C21.0382 1.67073 22.4542 1.4693 24.0953 1.45745C24.1368 1.45745 24.1723 1.45745 24.2138 1.45745C25.3868 1.45745 26.5244 1.55817 27.5434 1.72998C27.7922 1.76553 28.0529 1.81292 28.3254 1.86032C30.4168 2.24542 33.2014 2.99191 36.9161 4.28347C37.8936 4.62118 38.9364 5.00035 40.0502 5.42099C40.6663 5.65205 41.3003 5.89496 41.9579 6.15564C42.2067 6.03715 42.4556 5.91273 42.7103 5.78239C43.2909 5.48616 43.8952 5.16624 44.5173 4.81669C43.9486 4.63302 43.362 4.44344 42.7636 4.25385C41.5669 3.87468 40.3286 3.48958 39.0726 3.11633C35.6719 2.10323 32.1646 1.16122 29.0956 0.527288C27.022 0.136265 25.1795 0 23.6213 0C21.678 0 20.1673 0.213285 19.1838 0.408796" fill="white"/>
</mask>
<g mask="url(#mask0_753_113370)">
<path d="M53.9019 0.00585938H0V9.90584H53.9019V0.00585938Z" fill="url(#paint0_radial_753_113370)"/>
</g>
<mask id="mask1_753_113370" style="mask-type:luminance" maskUnits="userSpaceOnUse" x="2" y="0" width="55" height="11">
<path d="M13.7504 4.44376C13.1876 4.72814 12.601 5.04214 11.9908 5.38577C12.5359 5.5635 13.0987 5.74124 13.6674 5.9249C14.8642 6.30408 16.1025 6.68325 17.3585 7.0565C21.1324 8.17624 25.0367 9.2249 28.3189 9.84105C29.4031 10.0188 30.9672 10.1965 32.7802 10.1965C34.4094 10.1965 36.2401 10.0484 38.0886 9.60999C40.2866 9.03531 42.615 8.21179 44.8545 7.3231C43.8414 6.90838 42.8756 6.51736 41.9573 6.15596C39.6823 7.25793 37.7864 7.92149 36.1986 8.29474C35.9676 8.34806 35.7484 8.39545 35.5292 8.43693C34.6286 8.62651 33.5444 8.73908 32.3299 8.745H32.2055C30.6058 8.745 29.0773 8.56727 27.8272 8.26511C25.7714 7.86224 23.0698 7.12759 19.5209 5.89528C18.5434 5.55758 17.5007 5.17841 16.3868 4.75776C15.7944 4.53263 15.1841 4.29564 14.5502 4.05273C14.2895 4.17715 14.017 4.31342 13.7445 4.44968M2.53516 2.14502C2.53516 2.14502 4.94646 3.03371 8.47751 4.22455C9.17069 3.91647 9.88756 3.61432 10.6163 3.31216C10.9599 3.16997 11.3095 3.02778 11.659 2.89152C9.96458 2.19834 8.13981 1.42222 6.17878 0.563155L2.53516 2.15094V2.14502ZM44.8722 4.61557C44.7537 4.68074 44.6353 4.74591 44.5227 4.81701C45.7787 5.2258 46.9636 5.61682 48.0419 5.98415C48.2196 5.90713 48.3914 5.83011 48.5632 5.75309C52.8704 3.8276 56.2 2.00875 56.4489 1.87249V1.86064L51.5078 0.326172C49.0491 2.08577 46.8451 3.49582 44.8722 4.62149" fill="white"/>
</mask>
<g mask="url(#mask1_753_113370)">
<path d="M56.4429 0.326172H2.53516V10.2025H56.4429V0.326172Z" fill="url(#paint1_radial_753_113370)"/>
</g>
<mask id="mask2_753_113370" style="mask-type:luminance" maskUnits="userSpaceOnUse" x="8" y="2" width="41" height="6">
<path d="M42.7088 5.78286C42.454 5.9132 42.1993 6.03762 41.9564 6.15611C42.8806 6.51751 43.8463 6.90853 44.8535 7.32326C45.1853 7.19291 45.5171 7.05665 45.8429 6.92038C46.5953 6.6123 47.33 6.29238 48.0409 5.97837C46.9627 5.61105 45.7777 5.22003 44.5217 4.81123C43.8937 5.16078 43.2894 5.48071 42.7147 5.77694M10.6153 3.31231C9.88661 3.61447 9.16974 3.92254 8.47656 4.2247C9.55484 4.59202 10.7398 4.98304 11.9898 5.38592C12.6001 5.04229 13.1807 4.72829 13.7494 4.44391C14.022 4.30764 14.2886 4.17138 14.5552 4.04696C13.6309 3.68556 12.6712 3.30046 11.6581 2.88574C11.3085 3.02201 10.959 3.1642 10.6153 3.30639" fill="white"/>
</mask>
<g mask="url(#mask2_753_113370)">
<mask id="mask3_753_113370" style="mask-type:luminance" maskUnits="userSpaceOnUse" x="8" y="2" width="41" height="6">
<path d="M48.2061 2.71973H8.36328V7.46532H48.2061V2.71973Z" fill="white"/>
</mask>
<g mask="url(#mask3_753_113370)">
<rect width="40.3109" height="4.79891" transform="matrix(1 0 0 -1 8.36328 7.45996)" fill="url(#paint2_radial_753_113370)"/>
</g>
</g>
<defs>
<radialGradient id="paint0_radial_753_113370" cx="0" cy="0" r="1" gradientUnits="userSpaceOnUse" gradientTransform="translate(29.2931 10.9375) scale(39.4889 39.588)">
<stop stop-color="white" stop-opacity="0"/>
<stop offset="0.08" stop-color="white" stop-opacity="0.08"/>
<stop offset="0.17" stop-color="white" stop-opacity="0.17"/>
<stop offset="0.26" stop-color="white" stop-opacity="0.26"/>
<stop offset="0.36" stop-color="white" stop-opacity="0.36"/>
<stop offset="0.46" stop-color="white" stop-opacity="0.46"/>
<stop offset="0.57" stop-color="white" stop-opacity="0.68"/>
<stop offset="0.69" stop-color="white" stop-opacity="0.69"/>
<stop offset="0.82" stop-color="white" stop-opacity="0.82"/>
<stop offset="1" stop-color="white"/>
</radialGradient>
<radialGradient id="paint1_radial_753_113370" cx="0" cy="0" r="1" gradientUnits="userSpaceOnUse" gradientTransform="translate(31.8315 11.2317) scale(39.4933 39.4933)">
<stop stop-color="white" stop-opacity="0"/>
<stop offset="0.08" stop-color="white" stop-opacity="0.08"/>
<stop offset="0.17" stop-color="white" stop-opacity="0.17"/>
<stop offset="0.26" stop-color="white" stop-opacity="0.26"/>
<stop offset="0.36" stop-color="white" stop-opacity="0.36"/>
<stop offset="0.46" stop-color="white" stop-opacity="0.46"/>
<stop offset="0.57" stop-color="white" stop-opacity="0.68"/>
<stop offset="0.69" stop-color="white" stop-opacity="0.69"/>
<stop offset="0.82" stop-color="white" stop-opacity="0.82"/>
<stop offset="1" stop-color="white"/>
</radialGradient>
<radialGradient id="paint2_radial_753_113370" cx="0" cy="0" r="1" gradientUnits="userSpaceOnUse" gradientTransform="translate(21.9071 5.29901) scale(29.5321 19.1899)">
<stop stop-color="white" stop-opacity="0"/>
<stop offset="0.08" stop-color="white" stop-opacity="0.08"/>
<stop offset="0.17" stop-color="white" stop-opacity="0.17"/>
<stop offset="0.26" stop-color="white" stop-opacity="0.26"/>
<stop offset="0.36" stop-color="white" stop-opacity="0.36"/>
<stop offset="0.46" stop-color="white" stop-opacity="0.46"/>
<stop offset="0.57" stop-color="white" stop-opacity="0.68"/>
<stop offset="0.69" stop-color="white" stop-opacity="0.69"/>
<stop offset="0.82" stop-color="white" stop-opacity="0.82"/>
<stop offset="1" stop-color="white"/>
</radialGradient>
</defs>
</svg>
