<svg width="24" height="24" viewBox="0 0 24 24" fill="none" xmlns="http://www.w3.org/2000/svg">
<path d="M12 2C17.5228 2 22 6.47715 22 12C22 17.5228 17.5228 22 12 22C9.88877 22 7.93131 21.3444 6.31738 20.2275L2.6543 20.9902C2.30188 21.0634 1.99021 20.7518 2.06348 20.3994L2.93359 16.2188C2.33599 14.9366 2 13.5078 2 12C2 6.47715 6.47715 2 12 2Z" fill="#256EF4"/>
<path d="M10.991 14.1894C10.9171 14.1894 10.8572 14.1294 10.8572 14.0555V14.0555C10.8606 13.4344 10.919 12.9402 11.0322 12.573C11.1489 12.2058 11.3136 11.9106 11.5264 11.6875C11.7392 11.461 11.9983 11.2534 12.3037 11.0647C12.5131 10.9343 12.7001 10.7918 12.8648 10.6374C13.033 10.4795 13.1651 10.3045 13.2612 10.1123C13.3573 9.91672 13.4053 9.6988 13.4053 9.45857C13.4053 9.18745 13.3418 8.95237 13.2149 8.75333C13.0879 8.55428 12.9163 8.39985 12.7001 8.29003C12.4873 8.18021 12.2488 8.1253 11.9845 8.1253C11.7409 8.1253 11.5092 8.17849 11.2896 8.28488C11.0734 8.38784 10.8932 8.5457 10.7491 8.75847C10.6368 8.92548 10.5639 9.12853 10.5303 9.36761C10.5155 9.4729 10.429 9.55638 10.3226 9.55638H8.88502C8.7725 9.55638 8.68158 9.46346 8.68999 9.35125C8.73214 8.78907 8.88657 8.31179 9.15328 7.91939C9.45528 7.48011 9.85338 7.15066 10.3476 6.93102C10.8452 6.71138 11.3943 6.60156 11.9948 6.60156C12.6503 6.60156 13.2269 6.71653 13.7245 6.94646C14.2255 7.1764 14.6151 7.50414 14.893 7.92968C15.1744 8.3518 15.3151 8.85285 15.3151 9.43283C15.3151 9.82406 15.2517 10.1741 15.1247 10.483C15.0011 10.7918 14.8244 11.0664 14.5945 11.3066C14.3645 11.5468 14.0917 11.7613 13.776 11.9501C13.498 12.1217 13.2698 12.3001 13.0913 12.4855C12.9163 12.6708 12.7859 12.8887 12.7001 13.1392C12.6177 13.3863 12.5748 13.6917 12.5714 14.0555V14.0555C12.5714 14.1294 12.5115 14.1894 12.4376 14.1894H10.991ZM11.7529 17.4016C11.444 17.4016 11.1781 17.2917 10.955 17.0721C10.7319 16.8525 10.6204 16.5848 10.6204 16.2691C10.6204 15.9602 10.7319 15.6959 10.955 15.4763C11.1781 15.2567 11.444 15.1468 11.7529 15.1468C12.0583 15.1468 12.3226 15.2567 12.5457 15.4763C12.7722 15.6959 12.8854 15.9602 12.8854 16.2691C12.8854 16.4784 12.8322 16.6689 12.7258 16.8405C12.6229 17.012 12.4856 17.1493 12.314 17.2523C12.1458 17.3518 11.9588 17.4016 11.7529 17.4016Z" fill="white"/>
</svg>
