<svg width="24" height="24" viewBox="0 0 24 24" fill="none" xmlns="http://www.w3.org/2000/svg">
<path fill-rule="evenodd" clip-rule="evenodd" d="M10.7267 2.74205C11.4297 2.03911 12.5694 2.03911 13.2723 2.74205L16.1132 5.58291L18.2847 7.95419L21.1007 10.7702C21.8037 11.4731 21.8037 12.6128 21.1007 13.3158L18.2787 16.1378L16.1071 18.4096L13.2723 21.2444C12.5694 21.9473 11.4297 21.9473 10.7267 21.2444L7.89192 18.4096L5.72036 16.1378L2.8983 13.3158C2.19536 12.6128 2.19536 11.4731 2.8983 10.7702L5.7143 7.95419L7.88587 5.58291L10.7267 2.74205ZM12.1409 3.87342C12.0628 3.79532 11.9362 3.79532 11.8581 3.87342L9.0421 6.68942L6.87053 9.0607L4.02967 11.9016C3.95157 11.9797 3.95157 12.1063 4.02967 12.1844L6.86448 15.0192L9.03605 17.291L11.8581 20.113C11.9362 20.1911 12.0628 20.1911 12.1409 20.113L14.963 17.291L17.1346 15.0192L19.9694 12.1844C20.0475 12.1063 20.0475 11.9797 19.9694 11.9016L17.1285 9.0607L14.9569 6.68941L12.1409 3.87342Z" fill="#33363D"/>
</svg>
