<svg width="24" height="24" viewBox="0 0 24 24" fill="none" xmlns="http://www.w3.org/2000/svg">
<path fill-rule="evenodd" clip-rule="evenodd" d="M11.8511 4.9247C14.0164 2.75947 17.5269 2.75948 19.6921 4.9247C21.8573 7.08993 21.8573 10.6005 19.6921 12.7657L11.9913 20.4665C11.6789 20.7789 11.1723 20.7789 10.8599 20.4665C10.5475 20.154 10.5475 19.6475 10.8599 19.3351L18.5608 11.6343C20.1011 10.0939 20.1011 7.59646 18.5608 6.05607C17.0204 4.51569 14.5229 4.51568 12.9825 6.05608L4.92132 14.1172C4.92132 14.1172 4.92132 14.1172 4.92132 14.1172C3.95774 15.0809 3.95774 16.6431 4.92132 17.6067C5.8849 18.5703 7.44717 18.5703 8.41075 17.6067L15.6432 10.3742C15.99 10.0275 15.99 9.46518 15.6432 9.11839C15.2965 8.77162 14.7341 8.77162 14.3874 9.11839L7.51531 15.9905C7.20289 16.3029 6.69636 16.3029 6.38394 15.9905C6.07152 15.6781 6.07151 15.1716 6.38393 14.8591L13.256 7.98705C13.256 7.98705 13.256 7.98705 13.256 7.98705C14.2276 7.01542 15.803 7.01541 16.7746 7.98705C17.7462 8.95867 17.7462 10.534 16.7746 11.5056L9.54213 18.7381C7.95371 20.3265 5.37836 20.3265 3.78994 18.7381C2.20153 17.1496 2.20153 14.5743 3.78993 12.9859L11.8511 4.9247Z" fill="#33363D"/>
</svg>
