<svg width="24" height="24" viewBox="0 0 24 24" fill="none" xmlns="http://www.w3.org/2000/svg">
<path d="M11 4.29922C11 5.18287 10.2837 5.89922 9.4 5.89922C8.51634 5.89922 7.8 5.18287 7.8 4.29922C7.8 3.41556 8.51634 2.69922 9.4 2.69922C10.2837 2.69922 11 3.41556 11 4.29922Z" fill="#33363D"/>
<path d="M6.2 9.39883C6.2 10.2825 5.48366 10.9988 4.6 10.9988C3.71634 10.9988 3 10.2825 3 9.39883C3 8.51517 3.71634 7.79883 4.6 7.79883C5.48366 7.79883 6.2 8.51517 6.2 9.39883Z" fill="#33363D"/>
<path d="M5.9 4.29902C5.9 5.01699 5.31797 5.59902 4.6 5.59902C3.88203 5.59902 3.3 5.01699 3.3 4.29902C3.3 3.58105 3.88203 2.99902 4.6 2.99902C5.31797 2.99902 5.9 3.58105 5.9 4.29902Z" fill="#33363D"/>
<path d="M5.9 19.6989C5.9 20.4169 5.31797 20.9989 4.6 20.9989C3.88203 20.9989 3.3 20.4169 3.3 19.6989C3.3 18.981 3.88203 18.3989 4.6 18.3989C5.31797 18.3989 5.9 18.981 5.9 19.6989Z" fill="#33363D"/>
<path d="M20.7 4.29902C20.7 5.01699 20.118 5.59902 19.4 5.59902C18.682 5.59902 18.1 5.01699 18.1 4.29902C18.1 3.58105 18.682 2.99902 19.4 2.99902C20.118 2.99902 20.7 3.58105 20.7 4.29902Z" fill="#33363D"/>
<path d="M20.7 19.6989C20.7 20.4169 20.118 20.9989 19.4 20.9989C18.682 20.9989 18.1 20.4169 18.1 19.6989C18.1 18.981 18.682 18.3989 19.4 18.3989C20.118 18.3989 20.7 18.981 20.7 19.6989Z" fill="#33363D"/>
<path d="M21.0008 9.39883C21.0008 10.2825 20.2844 10.9988 19.4008 10.9988C18.5171 10.9988 17.8008 10.2825 17.8008 9.39883C17.8008 8.51517 18.5171 7.79883 19.4008 7.79883C20.2844 7.79883 21.0008 8.51517 21.0008 9.39883Z" fill="#33363D"/>
<path d="M6.2 14.599C6.2 15.4827 5.48366 16.199 4.6 16.199C3.71634 16.199 3 15.4827 3 14.599C3 13.7154 3.71634 12.999 4.6 12.999C5.48366 12.999 6.2 13.7154 6.2 14.599Z" fill="#33363D"/>
<path d="M21.0008 14.599C21.0008 15.4827 20.2844 16.199 19.4008 16.199C18.5171 16.199 17.8008 15.4827 17.8008 14.599C17.8008 13.7154 18.5171 12.999 19.4008 12.999C20.2844 12.999 21.0008 13.7154 21.0008 14.599Z" fill="#33363D"/>
<path d="M11 19.6991C11 20.5828 10.2837 21.2991 9.4 21.2991C8.51634 21.2991 7.8 20.5828 7.8 19.6991C7.8 18.8155 8.51634 18.0991 9.4 18.0991C10.2837 18.0991 11 18.8155 11 19.6991Z" fill="#33363D"/>
<path d="M11.4 9.39893C11.4 10.5035 10.5046 11.3989 9.4 11.3989C8.29543 11.3989 7.4 10.5035 7.4 9.39893C7.4 8.29436 8.29543 7.39893 9.4 7.39893C10.5046 7.39893 11.4 8.29436 11.4 9.39893Z" fill="#33363D"/>
<path d="M16.6 9.39893C16.6 10.5035 15.7046 11.3989 14.6 11.3989C13.4954 11.3989 12.6 10.5035 12.6 9.39893C12.6 8.29436 13.4954 7.39893 14.6 7.39893C15.7046 7.39893 16.6 8.29436 16.6 9.39893Z" fill="#33363D"/>
<path d="M11.4 14.5991C11.4 15.7037 10.5046 16.5991 9.4 16.5991C8.29543 16.5991 7.4 15.7037 7.4 14.5991C7.4 13.4946 8.29543 12.5991 9.4 12.5991C10.5046 12.5991 11.4 13.4946 11.4 14.5991Z" fill="#33363D"/>
<path d="M16.2 4.29922C16.2 5.18287 15.4837 5.89922 14.6 5.89922C13.7163 5.89922 13 5.18287 13 4.29922C13 3.41556 13.7163 2.69922 14.6 2.69922C15.4837 2.69922 16.2 3.41556 16.2 4.29922Z" fill="#33363D"/>
<path d="M16.6 14.5991C16.6 15.7037 15.7046 16.5991 14.6 16.5991C13.4954 16.5991 12.6 15.7037 12.6 14.5991C12.6 13.4946 13.4954 12.5991 14.6 12.5991C15.7046 12.5991 16.6 13.4946 16.6 14.5991Z" fill="#33363D"/>
<path d="M16.2 19.6991C16.2 20.5828 15.4837 21.2991 14.6 21.2991C13.7163 21.2991 13 20.5828 13 19.6991C13 18.8155 13.7163 18.0991 14.6 18.0991C15.4837 18.0991 16.2 18.8155 16.2 19.6991Z" fill="#33363D"/>
</svg>
