<svg width="24" height="24" viewBox="0 0 24 24" fill="none" xmlns="http://www.w3.org/2000/svg">
<path fill-rule="evenodd" clip-rule="evenodd" d="M4.63488 3.058C5.22211 2.49885 6.00458 2.19059 6.81597 2.1994C7.63479 2.2083 8.41714 2.53938 8.99364 3.12094C9.00975 3.1372 9.02119 3.1501 9.02418 3.15347C9.03038 3.16046 9.03567 3.16665 9.03847 3.16996L9.05223 3.18658L9.07217 3.21146C9.08551 3.22828 9.1031 3.2507 9.12359 3.27694C9.1649 3.32982 9.22194 3.40326 9.28895 3.48975C9.42316 3.66296 9.59956 3.89137 9.77488 4.11862C9.95028 4.34597 10.1249 4.57254 10.2556 4.74226L10.4497 4.99418C10.985 5.57298 11.2825 6.33307 11.2815 7.12257C11.2806 7.918 10.9768 8.68288 10.4325 9.26201L9.56756 10.2892C9.99728 11.1902 10.5776 12.0126 11.2846 12.7205C11.9912 13.428 12.8123 14.009 13.7121 14.4397L14.7387 13.5719C15.3177 13.0263 16.0832 12.7215 16.8794 12.7202C17.6696 12.7189 18.4303 13.0166 19.0095 13.5524L19.2617 13.7466C19.4317 13.8775 19.6586 14.0523 19.8862 14.2278C20.1138 14.4033 20.3425 14.5798 20.5158 14.7141C20.6024 14.7811 20.6759 14.8381 20.7287 14.8794L20.7941 14.9306L20.8188 14.9504L20.8352 14.964C20.8385 14.9668 20.8443 14.9717 20.8513 14.9779C20.854 14.9803 20.8694 14.9938 20.8885 15.013C21.4724 15.5993 21.8 16.3935 21.8004 17.2204C21.8008 18.038 21.4812 18.8228 20.9108 19.4073L20.2419 20.1775C20.2257 20.1961 20.2087 20.214 20.1908 20.2311C18.3676 21.9742 15.9357 22.1089 13.5926 21.3863C11.2563 20.6658 8.88114 19.0674 6.92401 17.1145C4.96673 15.1615 3.36178 12.7883 2.62923 10.4533C1.89516 8.11331 2.00955 5.67994 3.72858 3.85212C3.74682 3.83272 3.76602 3.81424 3.78611 3.79675L4.63488 3.058ZM18.0028 14.7967C17.9806 14.7796 17.9593 14.7613 17.939 14.742C17.654 14.4706 17.2755 14.3195 16.882 14.3202C16.4886 14.3208 16.1105 14.4731 15.8265 14.7454C15.8145 14.757 15.8021 14.7681 15.7893 14.7789L14.3619 15.9856C14.1334 16.1787 13.8163 16.2282 13.5399 16.114C12.2727 15.5903 11.1215 14.8213 10.1526 13.8512C9.18362 12.881 8.41601 11.7289 7.89387 10.461C7.7803 10.1853 7.82955 9.86923 8.02164 9.64111L9.22373 8.21351C9.23459 8.20062 9.24585 8.18807 9.2575 8.17589C9.52921 7.89176 9.68108 7.51388 9.68154 7.1207C9.68199 6.72752 9.53102 6.34928 9.25997 6.06452C9.24072 6.0443 9.22254 6.02308 9.20551 6.00096L8.98814 5.71871C8.85752 5.54916 8.68315 5.3229 8.50807 5.09595C8.33291 4.86891 8.15732 4.64157 8.02416 4.4697C7.95748 4.38364 7.902 4.3122 7.86269 4.26188L7.83069 4.22113C7.55318 3.95466 7.1842 3.8035 6.79859 3.79931C6.40052 3.79498 6.01674 3.94764 5.73038 4.22424C5.72043 4.23384 5.71024 4.24319 5.69982 4.25226L4.86804 4.97624C3.70995 6.23036 3.52733 7.9708 4.15587 9.97434C4.79063 11.9977 6.22475 14.1565 8.05414 15.9819C9.88368 17.8075 12.0428 19.2339 14.0642 19.8574C16.065 20.4744 17.8041 20.2792 19.0593 19.0991L19.7191 18.3394C19.7309 18.3258 19.7431 18.3127 19.7557 18.3C20.0407 18.0133 20.2006 17.6254 20.2004 17.2211C20.2002 16.8301 20.0503 16.454 19.7827 16.1708L19.7443 16.1406C19.6939 16.1013 19.6224 16.0458 19.5362 15.9791C19.3642 15.8459 19.1366 15.6702 18.9092 15.4949C18.6819 15.3196 18.4553 15.1451 18.2855 15.0143L18.0028 14.7967ZM7.85772 4.24774C7.85785 4.24787 7.85759 4.24761 7.85772 4.24774ZM7.86882 4.25871C7.86492 4.25493 7.8612 4.25125 7.85772 4.24774L7.86882 4.25871Z" fill="#33363D"/>
</svg>
