<svg width="24" height="24" viewBox="0 0 24 24" fill="none" xmlns="http://www.w3.org/2000/svg">
<path d="M11.999 1.69922C12.2449 1.69922 12.4773 1.8123 12.6289 2.00586C13.7566 3.44522 15.4873 4.37781 17.4492 4.37793H17.4541C18.1951 4.37793 18.5336 4.24503 19.3105 3.93945C19.5568 3.84269 19.8351 3.87353 20.0537 4.02246C20.2723 4.17139 20.4032 4.41908 20.4033 4.68359V11.1191C20.4033 15.5942 18.3551 18.3347 16.292 19.9336C15.271 20.7247 14.2533 21.2324 13.4912 21.543C13.1092 21.6987 12.7882 21.8058 12.5596 21.875C12.4454 21.9095 12.3541 21.9352 12.2891 21.9521C12.2565 21.9606 12.2298 21.9671 12.2109 21.9717L12.1885 21.9775L12.1807 21.9785L12.1787 21.9795H12.1768C12.0613 22.0053 11.9396 22.0056 11.8242 21.9795H11.8232L11.8203 21.9785L11.8135 21.9766L11.79 21.9717C11.7712 21.9671 11.7453 21.9606 11.7129 21.9521C11.6479 21.9351 11.5566 21.9088 11.4424 21.874C11.2138 21.8044 10.8926 21.6973 10.5107 21.541C9.74907 21.2293 8.73228 20.7196 7.71191 19.9277C5.65006 18.3275 3.60257 15.5873 3.60254 11.1191L3.60156 4.68359C3.60168 4.41901 3.73246 4.17138 3.95117 4.02246C4.17009 3.87347 4.44898 3.84227 4.69531 3.93945C5.46892 4.24465 5.80789 4.37793 6.54883 4.37793C8.51086 4.37791 10.2414 3.44521 11.3691 2.00586C11.5208 1.81234 11.7532 1.69926 11.999 1.69922ZM11.999 3.7041C10.6077 5.09809 8.69107 5.97752 6.54883 5.97754C6.00443 5.97754 5.58762 5.91602 5.20215 5.81348V11.1191C5.20215 15.0147 6.95464 17.3154 8.69238 18.6641C9.57147 19.3463 10.4542 19.7882 11.1172 20.0596C11.4478 20.1949 11.7212 20.2868 11.9082 20.3438C11.9425 20.3542 11.9737 20.3639 12.002 20.3721C12.0303 20.364 12.0623 20.3542 12.0967 20.3438C12.2837 20.2871 12.5572 20.1962 12.8877 20.0615C13.5508 19.7912 14.4334 19.3502 15.3125 18.6689C17.0501 17.3224 18.8027 15.0221 18.8027 11.1191V5.81348C18.4167 5.91628 17.9993 5.97754 17.4541 5.97754H17.4492C15.3071 5.97744 13.3903 5.09805 11.999 3.7041ZM15.4453 9.42188C15.764 9.11616 16.2702 9.12682 16.5762 9.44531C16.882 9.76391 16.8722 10.2701 16.5537 10.5762L11.3486 15.5762C11.1947 15.724 10.9878 15.8041 10.7744 15.7988C10.5612 15.7935 10.3592 15.703 10.2129 15.5479L7.41699 12.584C7.11403 12.2626 7.12885 11.7562 7.4502 11.4531C7.7716 11.15 8.27791 11.165 8.58105 11.4863L10.8223 13.8633L15.4453 9.42188Z" fill="#33363D"/>
</svg>
