<svg width="24" height="24" viewBox="0 0 24 24" fill="none" xmlns="http://www.w3.org/2000/svg">
<path d="M2 12C2 17.5228 6.47715 22 12 22V22C17.5228 22 22 17.5228 22 12V12C22 6.47715 17.5228 2 12 2V2C6.47715 2 2 6.47715 2 12V12Z" fill="#256EF4"/>
<path fill-rule="evenodd" clip-rule="evenodd" d="M15.7533 8.33878C16.1181 8.58805 16.2117 9.08586 15.9625 9.45065L11.8625 15.4506C11.7282 15.6472 11.5133 15.7737 11.2763 15.7958C11.0394 15.818 10.8048 15.7334 10.6364 15.5652L8.13488 13.0652C7.82236 12.7528 7.82221 12.2463 8.13453 11.9338C8.44685 11.6213 8.95338 11.6211 9.2659 11.9334L11.0854 13.7518L14.6414 8.54794C14.8907 8.18315 15.3885 8.0895 15.7533 8.33878Z" fill="white"/>
</svg>
