<svg width="24" height="24" viewBox="0 0 24 24" fill="none" xmlns="http://www.w3.org/2000/svg">
<path d="M11.2932 3.30852C11.6837 2.91799 12.3169 2.91799 12.7074 3.30852L15.5358 6.13695C15.9264 6.52747 15.9264 7.16064 15.5358 7.55116L12.7074 10.3796C12.3169 10.7701 11.6837 10.7701 11.2932 10.3796L8.46477 7.55116C8.07424 7.16063 8.07424 6.52747 8.46477 6.13695L11.2932 3.30852Z" fill="#33363D"/>
<path d="M6.2932 8.50823C6.68372 8.1177 7.31689 8.1177 7.70741 8.50823L10.5358 11.3367C10.9264 11.7272 10.9264 12.3603 10.5358 12.7509L7.70741 15.5793C7.31688 15.9698 6.68372 15.9698 6.2932 15.5793L3.46477 12.7509C3.07424 12.3603 3.07424 11.7272 3.46477 11.3367L6.2932 8.50823Z" fill="#33363D"/>
<path d="M16.2932 8.50823C16.6837 8.1177 17.3169 8.1177 17.7074 8.50823L20.5358 11.3367C20.9264 11.7272 20.9264 12.3603 20.5358 12.7509L17.7074 15.5793C17.3169 15.9698 16.6837 15.9698 16.2932 15.5793L13.4648 12.7509C13.0742 12.3603 13.0742 11.7272 13.4648 11.3367L16.2932 8.50823Z" fill="#33363D"/>
<path d="M11.2932 13.6084C11.6837 13.2179 12.3169 13.2179 12.7074 13.6084L15.5358 16.4368C15.9264 16.8274 15.9264 17.4605 15.5358 17.8511L12.7074 20.6795C12.3169 21.07 11.6837 21.07 11.2932 20.6795L8.46477 17.8511C8.07424 17.4605 8.07424 16.8274 8.46477 16.4368L11.2932 13.6084Z" fill="#33363D"/>
</svg>
