<svg width="24" height="24" viewBox="0 0 24 24" fill="none" xmlns="http://www.w3.org/2000/svg">
<rect x="22" y="2" width="20" height="20" rx="10" transform="rotate(90 22 2)" fill="#CDD1D5"/>
<path d="M15.9354 6.93344C16.2478 6.62121 16.7539 6.62108 17.0662 6.93344C17.3786 7.24579 17.3785 7.75186 17.0662 8.06429L13.1307 11.9998L17.0643 15.9334C17.3767 16.2459 17.3767 16.7519 17.0643 17.0643C16.7519 17.3767 16.2459 17.3767 15.9334 17.0643L11.9998 13.1307L8.06625 17.0643C7.75383 17.3767 7.24781 17.3767 6.93539 17.0643C6.62297 16.7519 6.62297 16.2459 6.93539 15.9334L10.869 11.9998L6.93344 8.06429C6.62121 7.75186 6.62108 7.24579 6.93344 6.93344C7.24579 6.62108 7.75186 6.62121 8.06429 6.93344L11.9998 10.869L15.9354 6.93344Z" fill="#33363D"/>
</svg>
