<svg width="24" height="24" viewBox="0 0 24 24" fill="none" xmlns="http://www.w3.org/2000/svg">
<path d="M7.72631 15.5879C8.74942 16.6397 9.78649 17.5539 10.5906 18.2208C10.9921 18.5537 11.3348 18.8236 11.5857 19.0166C11.7111 19.1131 11.8133 19.1905 11.8884 19.2461C11.9258 19.2738 11.9557 19.2962 11.9783 19.3125L11.9988 19.3272L12.0203 19.3125C12.0427 19.2964 12.0726 19.2739 12.1101 19.2461C12.1851 19.1907 12.2875 19.114 12.4128 19.0176C12.6636 18.8248 13.0055 18.5547 13.407 18.2217C14.2111 17.5549 15.248 16.6399 16.2712 15.5879C16.3314 15.526 16.391 15.4632 16.4509 15.4004H18.613C18.2231 15.8545 17.8203 16.2912 17.4187 16.7041C15.2803 18.9026 13.096 20.5171 12.8796 20.6631L12.446 20.9561C12.1758 21.1382 11.8217 21.1383 11.5515 20.9561L11.1179 20.6631L11.116 20.6622C10.9007 20.5159 8.71816 18.9014 6.57983 16.7032C6.17832 16.2904 5.77531 15.8543 5.38549 15.4004H7.5476C7.6074 15.463 7.66625 15.5262 7.72631 15.5879ZM12.9167 9.20415C13.2122 9.17338 13.501 9.3095 13.6658 9.55669L15.4275 12.2002H20.8464C20.7032 12.4746 20.5513 12.7467 20.3874 13.0118C20.2233 13.2774 20.0462 13.5395 19.863 13.7999H14.9997C14.7323 13.7999 14.4821 13.6669 14.3337 13.4444L13.1775 11.709L11.7429 15.2969C11.6431 15.5465 11.4242 15.7301 11.1609 15.7842C10.8975 15.8383 10.6245 15.7556 10.4343 15.5655L8.66869 13.7999H4.13549C3.95225 13.5395 3.77528 13.2775 3.61108 13.0118C3.44729 12.7467 3.29535 12.4745 3.15209 12.2002H8.99975C9.21187 12.2002 9.41516 12.2847 9.56518 12.4346L10.7078 13.5762L12.2566 9.70317C12.3669 9.42737 12.6213 9.23495 12.9167 9.20415ZM16.155 3.00102C17.7001 3.06501 19.1645 3.70908 20.2244 4.80474C21.2816 5.89783 21.8507 7.35235 21.7956 8.85356C21.7938 9.43702 21.689 10.0222 21.5134 10.6006H19.8201C20.0613 9.97867 20.195 9.38759 20.1951 8.83794C20.1951 8.82739 20.1956 8.81626 20.196 8.80571C20.2378 7.74679 19.8389 6.70783 19.074 5.91704C18.3127 5.13011 17.2499 4.65348 16.1121 4.60063C15.4093 4.61477 14.7243 4.80327 14.1257 5.14556C13.8936 5.2783 13.6384 5.52289 13.3757 5.85942C13.1188 6.18865 12.8896 6.5607 12.6912 6.90239C12.548 7.14885 12.2838 7.29985 11.9988 7.29985C11.7139 7.29978 11.4506 7.14864 11.3074 6.90239C11.1089 6.56063 10.8788 6.1887 10.6218 5.85942C10.3592 5.523 10.1049 5.27833 9.8728 5.14556C9.27421 4.80323 8.58918 4.61482 7.88647 4.60063C6.74851 4.6534 5.68487 5.13001 4.92358 5.91704C4.15874 6.70781 3.75971 7.74687 3.80151 8.80571C3.80192 8.81626 3.80248 8.82739 3.80248 8.83794C3.80251 9.38757 3.93628 9.97873 4.17748 10.6006H2.48315C2.30763 10.0223 2.20469 9.43691 2.20287 8.85356C2.14782 7.35225 2.71678 5.89786 3.77416 4.80474C4.83398 3.70914 6.29752 3.06501 7.84252 3.00102C7.85748 3.00041 7.87247 2.99983 7.88744 3.00005C8.86518 3.01454 9.82381 3.27482 10.6667 3.75688C11.1586 4.03818 11.5647 4.46661 11.8835 4.87505C11.9228 4.92538 11.961 4.97638 11.9988 5.02739C12.0366 4.97628 12.0756 4.92547 12.115 4.87505C12.4337 4.46669 12.8391 4.03818 13.3308 3.75688C14.1736 3.27488 15.1325 3.0146 16.1101 3.00005C16.125 2.99983 16.1402 3.00042 16.155 3.00102Z" fill="#33363D"/>
</svg>
