<svg width="24" height="24" viewBox="0 0 24 24" fill="none" xmlns="http://www.w3.org/2000/svg">
<path d="M5.40039 10.6016C6.17341 10.6018 6.7998 11.2289 6.7998 12.002C6.79959 12.7748 6.17328 13.4012 5.40039 13.4014C4.62732 13.4014 4.00021 12.775 4 12.002C4 11.2288 4.62719 10.6016 5.40039 10.6016ZM12.002 10.6016C12.775 10.6018 13.4014 11.2289 13.4014 12.002C13.4012 12.7748 12.7748 13.4012 12.002 13.4014C11.2289 13.4014 10.6018 12.775 10.6016 12.002C10.6016 11.2288 11.2288 10.6016 12.002 10.6016ZM18.5996 10.6016C19.3726 10.6018 19.999 11.2289 19.999 12.002C19.9988 12.7748 19.3725 13.4012 18.5996 13.4014C17.8265 13.4014 17.1994 12.775 17.1992 12.002C17.1992 11.2288 17.8264 10.6016 18.5996 10.6016Z" fill="#33363D"/>
</svg>
