<svg width="24" height="24" viewBox="0 0 24 24" fill="none" xmlns="http://www.w3.org/2000/svg">
<path fill-rule="evenodd" clip-rule="evenodd" d="M4.0002 4.19922C3.00608 4.19922 2.2002 5.00511 2.2002 5.99922V17.9992C2.2002 18.9933 3.00608 19.7992 4.0002 19.7992H20.0002C20.9943 19.7992 21.8002 18.9933 21.8002 17.9992V5.99922C21.8002 5.00511 20.9943 4.19922 20.0002 4.19922H4.0002ZM3.8002 5.99922C3.8002 5.88876 3.88974 5.79922 4.0002 5.79922H9.00022L9.00022 18.1992H4.0002C3.88974 18.1992 3.8002 18.1097 3.8002 17.9992V5.99922ZM10.6002 18.1992H20.0002C20.1107 18.1992 20.2002 18.1097 20.2002 17.9992V5.99922C20.2002 5.88876 20.1107 5.79922 20.0002 5.79922H10.6002L10.6002 18.1992Z" fill="#33363D"/>
</svg>
