<svg width="24" height="24" viewBox="0 0 24 24" fill="none" xmlns="http://www.w3.org/2000/svg">
<path fill-rule="evenodd" clip-rule="evenodd" d="M11.5853 19.6849C7.9272 17.492 4.61576 18.7892 3.4802 19.6409C3.23778 19.8227 2.91345 19.8519 2.64242 19.7164C2.3714 19.5809 2.2002 19.3039 2.2002 19.0009V7.00088C2.2002 6.74907 2.31875 6.51196 2.5202 6.36088C3.99846 5.25218 7.79836 3.81316 11.9664 6.06123C13.7412 4.98581 17.4426 3.93334 21.4118 6.31489C21.6528 6.45946 21.8002 6.71987 21.8002 7.00088V19.0009C21.8002 19.2891 21.6452 19.555 21.3944 19.697C21.1435 19.839 20.8357 19.8352 20.5886 19.6869C16.9329 17.4935 13.6229 18.7863 12.4837 19.6383C12.4695 19.649 12.4549 19.6593 12.44 19.6692C12.3885 19.703 12.334 19.7304 12.2774 19.7513C12.1848 19.7856 12.0873 19.802 11.9901 19.8008C11.9086 19.7998 11.8273 19.7863 11.7491 19.7605C11.7052 19.746 11.6622 19.7275 11.6207 19.7051C11.6087 19.6987 11.5969 19.6919 11.5853 19.6849ZM3.8002 17.6292V7.42591C5.10575 6.63258 7.99261 5.7419 11.2002 7.46603V17.6866C8.23719 16.3843 5.52747 16.865 3.8002 17.6292ZM12.8002 17.6292C14.5275 16.865 17.2372 16.3843 20.2002 17.6866V7.46603C16.9926 5.7419 14.1058 6.63258 12.8002 7.42591V17.6292Z" fill="#33363D"/>
<circle cx="20.001" cy="7" r="3" fill="#256EF4"/>
<circle cx="20.001" cy="7" r="4" fill="#256EF4"/>
</svg>
