<svg width="24" height="24" viewBox="0 0 24 24" fill="none" xmlns="http://www.w3.org/2000/svg">
<path d="M7.0188 17.9993C7.57108 17.9993 8.0188 17.5516 8.0188 16.9993C8.0188 16.447 7.57108 15.9993 7.0188 15.9993C6.46651 15.9993 6.0188 16.447 6.0188 16.9993C6.0188 17.5516 6.46651 17.9993 7.0188 17.9993Z" fill="#33363D"/>
<path fill-rule="evenodd" clip-rule="evenodd" d="M3.21875 6.99922C3.21875 4.90054 4.92007 3.19922 7.01875 3.19922C8.0681 3.19922 9.01811 3.62456 9.70578 4.31224C10.3935 4.9999 10.8188 5.94991 10.8188 6.99927V7.3451L11.7133 6.45064C13.1973 4.96665 15.6033 4.96665 17.0873 6.45064C18.5713 7.93463 18.5713 10.3407 17.0873 11.8247L15.7127 13.1992H17.0188C19.1174 13.1992 20.8188 14.9005 20.8188 16.9992C20.8188 19.0979 19.1174 20.7992 17.0188 20.7992L7.19885 20.7992L7.2032 20.7949C7.1421 20.7978 7.08062 20.7993 7.0188 20.7993C6.24534 20.7993 5.52586 20.5682 4.92562 20.1713C4.7115 20.0297 4.51255 19.867 4.33174 19.6862C3.64408 18.9986 3.21875 18.0486 3.21875 16.9992V6.99922ZM10.1176 19.1992H17.0188C18.2338 19.1992 19.2188 18.2142 19.2188 16.9992C19.2188 15.7842 18.2338 14.7992 17.0188 14.7992H14.1127L10.5777 18.3342C10.4615 18.6438 10.3061 18.9341 10.1176 19.1992ZM10.8188 15.8304V9.60785L12.8446 7.58201C13.7038 6.72286 15.0967 6.72286 15.9559 7.58201C16.8151 8.44116 16.8151 9.83413 15.9559 10.6933L10.8188 15.8304ZM7.0188 4.79927C7.62511 4.79927 8.17414 5.04454 8.57207 5.44128C8.97155 5.83958 9.21875 6.39053 9.21875 6.99922V16.9992C9.21875 18.2142 8.23378 19.1992 7.01875 19.1992C6.40769 19.1992 5.85482 18.9501 5.45616 18.5479C5.06216 18.1503 4.8188 17.6032 4.8188 16.9993V6.99927C4.8188 5.78424 5.80377 4.79927 7.0188 4.79927Z" fill="#33363D"/>
</svg>
