<svg width="24" height="24" viewBox="0 0 24 24" fill="none" xmlns="http://www.w3.org/2000/svg">
<path d="M22 12C22 17.5235 17.5221 22 12.0009 22C6.47973 22 2 17.5235 2 12C2 6.47645 6.47604 2 12.0009 2C17.5258 2 22 6.4783 22 12Z" fill="white"/>
<path d="M16.7697 11.3037C15.1711 10.2233 13.125 10.6629 12.0499 12.288C11.155 13.6453 9.8014 13.8152 9.27966 13.8152C7.56961 13.8152 6.40173 12.6185 6.05452 11.3812C6.0508 11.3683 6.04709 11.3572 6.04523 11.3461C6.04152 11.3332 6.03966 11.3184 6.03409 11.3037C5.89669 10.7866 5.86327 10.541 5.86327 9.9925C5.86327 7.0359 8.91574 3.74135 13.3088 3.74135C17.7018 3.74135 20.3848 7.14855 21.0513 9.04329C21.0383 9.0082 21.0272 8.9768 21.0161 8.94356C19.7386 5.23719 16.2053 2.57422 12.0462 2.57422C6.81578 2.57422 2.57129 6.79213 2.57129 11.9999C2.57129 16.6536 5.94497 20.6352 10.6276 20.6352C14.3597 20.6352 16.8681 18.5558 18.0174 15.6841C18.6487 14.1144 18.2031 12.2714 16.7697 11.3018" fill="#003964"/>
<path d="M21.106 9.22695C20.5508 7.37838 17.9588 3.74219 13.3058 3.74219C8.91282 3.74219 5.86035 7.03674 5.86035 9.99334C5.86035 10.5418 5.89563 10.7874 6.03117 11.3045C5.97361 11.0774 5.9439 10.8521 5.9439 10.6323C5.9439 7.55198 9.04465 5.41716 12.2327 5.41716C16.5496 5.41716 20.0476 8.89639 20.0476 13.1882C20.0476 16.5511 18.0999 19.4652 15.274 20.8631C18.9206 19.552 21.5237 16.0783 21.5237 12.0007C21.5237 11.0349 21.3938 10.1836 21.1078 9.22695" fill="#ED1A3B"/>
</svg>
