<svg width="24" height="24" viewBox="0 0 24 24" fill="none" xmlns="http://www.w3.org/2000/svg">
<path d="M17.499 12.9004C17.6003 12.9004 17.7106 12.9188 17.7998 12.9531L16.7578 14.5H4.7998C4.68944 14.5001 4.59961 14.5898 4.59961 14.7002V19.2002C4.59977 19.3105 4.68953 19.4003 4.7998 19.4004H11.9004L13.5 21H4.7998C3.80588 20.9999 3.00016 20.1941 3 19.2002V14.7002C3 13.7061 3.80578 12.9005 4.7998 12.9004H17.499ZM16.6797 4.59961H4.7998C4.6895 4.59971 4.59971 4.6895 4.59961 4.7998V9.2998C4.59961 9.4102 4.68944 9.49989 4.7998 9.5H12L13.6309 11.0996H4.7998C3.80578 11.0995 3 10.2939 3 9.2998V4.7998C3.00011 3.80585 3.80585 3.00011 4.7998 3H17.7695L16.6797 4.59961Z" fill="#33363D"/>
<path fill-rule="evenodd" clip-rule="evenodd" d="M20.448 3.33793C20.8133 3.58651 20.9079 4.08413 20.6593 4.4494L16.576 10.4494C16.4419 10.6464 16.227 10.7734 15.9897 10.7958C15.7525 10.8181 15.5176 10.7336 15.349 10.5651L12.8477 8.06513C12.5352 7.75279 12.5351 7.24626 12.8474 6.93376C13.1598 6.62126 13.6663 6.62113 13.9788 6.93346L15.7968 8.75048L19.3365 3.5492C19.5851 3.18393 20.0828 3.08934 20.448 3.33793Z" fill="#256EF4"/>
<path fill-rule="evenodd" clip-rule="evenodd" d="M20.448 13.3379C20.8133 13.5865 20.9079 14.0841 20.6593 14.4494L16.576 20.4494C16.4419 20.6464 16.227 20.7734 15.9897 20.7958C15.7525 20.8181 15.5176 20.7336 15.349 20.5651L12.8477 18.0651C12.5352 17.7528 12.5351 17.2463 12.8474 16.9338C13.1598 16.6213 13.6663 16.6211 13.9788 16.9335L15.7968 18.7505L19.3365 13.5492C19.5851 13.1839 20.0828 13.0893 20.448 13.3379Z" fill="#256EF4"/>
</svg>
