<svg width="24" height="24" viewBox="0 0 24 24" fill="none" xmlns="http://www.w3.org/2000/svg">
<path fill-rule="evenodd" clip-rule="evenodd" d="M11.9986 4.20156C7.69081 4.20156 4.19863 7.69374 4.19863 12.0016V13.1058L7.24345 13.0799C8.24352 13.0714 9.05877 13.8798 9.05877 14.8799V19.6016C9.05877 20.5957 8.25288 21.4016 7.25877 21.4016H4.39863C3.40452 21.4016 2.59863 20.5957 2.59863 19.6016V12.0016C2.59863 6.81009 6.80716 2.60156 11.9986 2.60156C17.1901 2.60156 21.3986 6.81009 21.3986 12.0016V19.6016C21.3986 20.5957 20.5927 21.4016 19.5986 21.4016H16.737C15.7429 21.4016 14.937 20.5957 14.937 19.6016V14.9127C14.937 13.9186 15.7429 13.1127 16.737 13.1127H19.7986V12.0016C19.7986 7.69374 16.3065 4.20156 11.9986 4.20156ZM19.7986 14.7127H16.737C16.6266 14.7127 16.537 14.8022 16.537 14.9127V19.6016C16.537 19.712 16.6266 19.8016 16.737 19.8016H19.5986C19.7091 19.8016 19.7986 19.712 19.7986 19.6016V14.7127ZM4.19863 14.7059V19.6016C4.19863 19.712 4.28818 19.8016 4.39863 19.8016H7.25877C7.36923 19.8016 7.45877 19.712 7.45877 19.6016V14.8799C7.45877 14.7687 7.36819 14.6789 7.25707 14.6799L4.19863 14.7059Z" fill="#33363D"/>
</svg>
