<svg width="24" height="24" viewBox="0 0 24 24" fill="none" xmlns="http://www.w3.org/2000/svg">
<path d="M3.3499 10.401L11.3499 3.55655C11.7242 3.23636 12.2758 3.23636 12.6501 3.55655L20.6501 10.401C20.8722 10.591 21 10.8686 21 11.1609V20.2004C21 20.7526 20.5523 21.2004 20 21.2004H15.25C14.6977 21.2004 14.25 20.7526 14.25 20.2004V15.7006C14.25 15.4244 14.0261 15.2006 13.75 15.2006H10.25C9.97386 15.2006 9.75 15.4244 9.75 15.7006V20.2004C9.75 20.7526 9.30228 21.2004 8.75 21.2004H4C3.44772 21.2004 3 20.7526 3 20.2004V11.1609C3 10.8686 3.12784 10.591 3.3499 10.401Z" fill="#33363D"/>
</svg>
