<svg width="24" height="24" viewBox="0 0 24 24" fill="none" xmlns="http://www.w3.org/2000/svg">
<path d="M12.999 2.60156C13.9931 2.60156 14.7987 3.40734 14.7988 4.40137V5.60156H20.1982C21.1923 5.60156 21.9979 6.40734 21.998 7.40137V18.2012C21.998 19.1953 21.1924 20.002 20.1982 20.002H3.7998C2.80578 20.0018 2 19.1952 2 18.2012V7.40137C2.00011 6.40741 2.80585 5.60167 3.7998 5.60156H9.19922V4.40137C9.19932 3.40741 10.0051 2.60167 10.999 2.60156H12.999ZM3.7998 7.20117C3.6895 7.20128 3.59972 7.29106 3.59961 7.40137V18.2012C3.59961 18.3116 3.68944 18.4013 3.7998 18.4014H20.1982C20.3087 18.4014 20.3984 18.3116 20.3984 18.2012V7.40137C20.3983 7.291 20.3086 7.20117 20.1982 7.20117H14.7988V8.40137C14.7988 9.39548 13.9931 10.2012 12.999 10.2012H10.999C10.005 10.2011 9.19922 9.39541 9.19922 8.40137V7.20117H3.7998ZM9.40234 14.4023C10.5069 14.4023 11.4023 15.2978 11.4023 16.4023V16.8027H5.40234V16.4023C5.40234 15.2978 6.29777 14.4023 7.40234 14.4023H9.40234ZM17.999 14.6016C18.4408 14.6016 18.7987 14.9596 18.7988 15.4014C18.7988 15.8432 18.4409 16.2012 17.999 16.2012H12.999C12.5573 16.2011 12.1992 15.8431 12.1992 15.4014C12.1993 14.9597 12.5574 14.6017 12.999 14.6016H17.999ZM8.45117 11.002C9.19663 11.002 9.80155 11.6062 9.80176 12.3516C9.80149 13.0969 9.19659 13.7021 8.45117 13.7021C7.70593 13.7019 7.10183 13.0968 7.10156 12.3516C7.10177 11.6063 7.7059 11.0022 8.45117 11.002ZM17.999 11.6016C18.4408 11.6016 18.7987 11.9596 18.7988 12.4014C18.7988 12.8432 18.4409 13.2012 17.999 13.2012H12.999C12.5573 13.2011 12.1992 12.8431 12.1992 12.4014C12.1993 11.9597 12.5574 11.6017 12.999 11.6016H17.999ZM10.999 4.20117C10.8887 4.20128 10.7989 4.29106 10.7988 4.40137V8.40137C10.7988 8.51176 10.8887 8.60146 10.999 8.60156H12.999C13.1095 8.60156 13.1992 8.51182 13.1992 8.40137V4.40137C13.1991 4.291 13.1094 4.20117 12.999 4.20117H10.999Z" fill="currentColor"/>
</svg>
