<svg width="24" height="24" viewBox="0 0 24 24" fill="none" xmlns="http://www.w3.org/2000/svg">
<path d="M11.999 2.19922C17.4113 2.19922 21.7987 6.58672 21.7988 11.999V21.7988H11.999C6.58672 21.7987 2.19922 17.4113 2.19922 11.999C2.19932 6.58679 6.58679 2.19932 11.999 2.19922ZM11.999 3.79883C7.47044 3.79893 3.79893 7.47044 3.79883 11.999C3.79883 16.5277 7.47038 20.1991 11.999 20.1992H20.1992V11.999C20.1991 7.47038 16.5277 3.79883 11.999 3.79883ZM7.59766 11.5303C8.14994 11.5303 8.59766 11.978 8.59766 12.5303C8.59766 13.0826 8.14994 13.5303 7.59766 13.5303C7.04537 13.5303 6.59766 13.0826 6.59766 12.5303C6.59766 11.978 7.04537 11.5303 7.59766 11.5303ZM11.9961 11.5303C12.5484 11.5303 12.9961 11.978 12.9961 12.5303C12.9961 13.0826 12.5484 13.5303 11.9961 13.5303C11.4438 13.5303 10.9961 13.0826 10.9961 12.5303C10.9961 11.978 11.4438 11.5303 11.9961 11.5303ZM16.3945 11.5303C16.9468 11.5303 17.3945 11.978 17.3945 12.5303C17.3945 13.0826 16.9468 13.5303 16.3945 13.5303C15.8422 13.5303 15.3945 13.0826 15.3945 12.5303C15.3945 11.978 15.8422 11.5303 16.3945 11.5303Z" fill="#33363D"/>
</svg>
