<svg width="24" height="24" viewBox="0 0 24 24" fill="none" xmlns="http://www.w3.org/2000/svg">
<path d="M10.9785 2.60184C11.1907 2.59626 11.3968 2.67546 11.5508 2.82157L15.7471 6.80789C15.6646 6.8035 15.5816 6.80203 15.498 6.80203C14.8869 6.80208 14.304 6.92156 13.7705 7.13797L11.0293 4.53348L4.59961 11.3206V19.4016H8.19922C8.26984 19.4016 8.33809 19.4118 8.40332 19.429C8.4032 19.4412 8.40234 19.4539 8.40234 19.4661V20.9749C8.33742 20.9919 8.26948 21.0022 8.19922 21.0022H3.7998C3.35807 21.0021 3 20.6432 3 20.2014V11.0022C3 10.7975 3.07895 10.6 3.21973 10.4514L10.4189 2.85184C10.5649 2.69777 10.7664 2.60754 10.9785 2.60184ZM10.7871 17.762C13.503 15.4502 17.495 15.4503 20.2109 17.762C20.7104 18.1871 20.998 18.8102 20.998 19.4661V21.0022H10V19.4661C10 18.8102 10.2877 18.1871 10.7871 17.762ZM19.1738 18.9807C17.0556 17.1777 13.9424 17.1777 11.8242 18.9807C11.6985 19.0879 11.62 19.2389 11.6035 19.4016H19.3955C19.379 19.2388 19.2997 19.0879 19.1738 18.9807ZM15.5 8.40164C17.1569 8.40164 18.5 9.74479 18.5 11.4016C18.5 13.0585 17.1569 14.4016 15.5 14.4016C13.8431 14.4016 12.5 13.0585 12.5 11.4016C12.5 9.87147 13.6457 8.6092 15.126 8.42508L15.125 8.4241C15.1406 8.42217 15.1562 8.4209 15.1719 8.41922C15.1965 8.41654 15.2213 8.41447 15.2461 8.41239C15.273 8.4102 15.3 8.40799 15.3271 8.40653C15.3844 8.40328 15.442 8.40164 15.5 8.40164ZM15.5 10.0013C14.7268 10.0013 14.0996 10.6284 14.0996 11.4016C14.0996 12.1748 14.7268 12.802 15.5 12.802C16.2732 12.802 16.9004 12.1748 16.9004 11.4016C16.9004 10.6284 16.2732 10.0013 15.5 10.0013Z" fill="#33363D"/>
</svg>
