<svg width="24" height="24" viewBox="0 0 24 24" fill="none" xmlns="http://www.w3.org/2000/svg">
<path d="M20.999 17.1992C21.4408 17.1992 21.7987 17.5573 21.7988 17.999C21.7988 18.4409 21.4409 18.7988 20.999 18.7988H2.99902C2.55729 18.7987 2.19922 18.4408 2.19922 17.999C2.19932 17.5574 2.55735 17.1993 2.99902 17.1992H20.999ZM20.999 11.1992C21.4408 11.1992 21.7987 11.5573 21.7988 11.999C21.7988 12.4409 21.4409 12.7988 20.999 12.7988H2.99902C2.55729 12.7987 2.19922 12.4408 2.19922 11.999C2.19932 11.5574 2.55735 11.1993 2.99902 11.1992H20.999ZM20.999 5.19922C21.4408 5.19922 21.7987 5.55729 21.7988 5.99902C21.7988 6.44085 21.4409 6.79883 20.999 6.79883H2.99902C2.55729 6.79872 2.19922 6.44079 2.19922 5.99902C2.19932 5.55735 2.55735 5.19932 2.99902 5.19922H20.999Z" fill="#33363D"/>
</svg>
