<svg width="24" height="24" viewBox="0 0 24 24" fill="none" xmlns="http://www.w3.org/2000/svg">
<path d="M10.3291 3.98438C10.5456 3.98397 10.7533 4.07137 10.9043 4.22656L12.3359 5.69824H20.1992C21.1933 5.6983 21.999 6.50495 21.999 7.49902V18.1982C21.999 19.1923 21.1933 19.999 20.1992 19.999H3.79785C2.80391 19.999 1.99734 19.1931 1.99707 18.1992L1.99609 5.79688C1.99599 4.80401 2.8001 3.99894 3.79297 3.99707L10.3291 3.98438ZM3.7959 5.59668C3.68558 5.59689 3.59569 5.68656 3.5957 5.79688L3.59766 18.1992C3.59792 18.3095 3.68756 18.3984 3.79785 18.3984H20.1992C20.3096 18.3984 20.3994 18.3087 20.3994 18.1982V7.49902C20.3994 7.3886 20.3096 7.29889 20.1992 7.29883H11.9971C11.7812 7.2987 11.5743 7.21139 11.4238 7.05664L9.99316 5.58496L3.7959 5.59668ZM15.001 9.69824C15.4427 9.69835 15.8008 10.0573 15.8008 10.499V12.1992H17.499C17.9409 12.1992 18.2988 12.5572 18.2988 12.999C18.2987 13.4407 17.9408 13.7988 17.499 13.7988H15.8008V15.499C15.8006 15.9407 15.4426 16.2987 15.001 16.2988C14.5592 16.2988 14.2013 15.9407 14.2012 15.499V13.7988H12.499C12.0574 13.7987 11.6994 13.4407 11.6992 12.999C11.6992 12.5573 12.0573 12.1993 12.499 12.1992H14.2012V10.499C14.2012 10.0572 14.5591 9.69824 15.001 9.69824Z" fill="#33363D"/>
</svg>
