<svg width="24" height="24" viewBox="0 0 24 24" fill="none" xmlns="http://www.w3.org/2000/svg">
<path d="M12.0459 2.60156C15.3853 2.60156 18.3197 4.32611 20 6.92871V4.00195C20 3.56019 20.3581 3.20225 20.7998 3.20215C21.2416 3.20215 21.5996 3.56013 21.5996 4.00195V9.00195C21.5995 9.44365 21.2415 9.80176 20.7998 9.80176H15.7998C15.3582 9.80165 15.0002 9.44358 15 9.00195C15 8.56019 15.3581 8.20225 15.7998 8.20215H18.9004C17.5583 5.816 14.9927 4.20117 12.0459 4.20117C7.7072 4.2012 4.19727 7.69837 4.19727 12.002C4.19748 16.3053 7.70733 19.8017 12.0459 19.8018C15.9831 19.8018 19.2395 16.921 19.8066 13.1719C19.8727 12.735 20.2809 12.4349 20.7178 12.501C21.1543 12.5673 21.4547 12.9745 21.3887 13.4111C20.7039 17.9375 16.7795 21.4014 12.0459 21.4014C6.83213 21.4013 2.59787 17.1974 2.59766 12.002C2.59766 6.80628 6.832 2.60159 12.0459 2.60156Z" fill="#33363D"/>
</svg>
