<svg width="32" height="32" viewBox="0 0 32 32" fill="none" xmlns="http://www.w3.org/2000/svg">
<path d="M16 0.400391C24.6156 0.400391 31.5996 7.38436 31.5996 16C31.5996 24.6156 24.6156 31.5996 16 31.5996C7.38436 31.5996 0.400391 24.6156 0.400391 16C0.400391 7.38436 7.38436 0.400391 16 0.400391Z" stroke="#CDD1D5" stroke-width="0.8"/>
<path fill-rule="evenodd" clip-rule="evenodd" d="M18.8757 22.1879C18.6392 22.4506 18.2346 22.4719 17.9719 22.2355L11.5719 16.4753C11.437 16.3539 11.36 16.181 11.36 15.9996C11.36 15.8182 11.437 15.6453 11.5719 15.5239L17.9719 9.76391C18.2346 9.52745 18.6393 9.54875 18.8757 9.81148C19.1122 10.0742 19.0909 10.4789 18.8281 10.7153L12.9567 15.9996L18.8281 21.2841C19.0909 21.5205 19.1122 21.9252 18.8757 22.1879Z" fill="#33363D"/>
</svg>
