<svg width="24" height="24" viewBox="0 0 24 24" fill="none" xmlns="http://www.w3.org/2000/svg">
<path d="M12.8955 1.60156C13.259 1.60156 13.5765 1.8467 13.6689 2.19824L14.166 4.08789L15.9434 4.81934L17.2383 3.71387C17.5557 3.4426 18.028 3.46065 18.3232 3.75586L20.2432 5.67578C20.5373 5.96991 20.5567 6.44018 20.2881 6.75781L19.1875 8.06055L19.9014 9.78418L21.7949 10.2666C22.1494 10.3568 22.3975 10.6762 22.3975 11.042V12.9395C22.3974 13.3037 22.1513 13.6222 21.7988 13.7139L19.8936 14.21L19.1787 15.9365L20.2881 17.2441C20.5573 17.5617 20.5376 18.0328 20.2432 18.3271L18.3232 20.2471C18.0228 20.5475 17.54 20.5609 17.2236 20.2773L17.1699 20.2295C17.1354 20.1987 17.0855 20.1538 17.0244 20.0996C16.9018 19.9908 16.734 19.8434 16.5537 19.6865C16.345 19.5048 16.1325 19.322 15.9551 19.1748L14.2148 19.8955L13.7334 21.7979C13.6435 22.1527 13.324 22.4012 12.958 22.4014H11.0381C10.6718 22.4014 10.3515 22.1529 10.2617 21.7979L9.78223 19.8955L8.09375 19.2012L6.74316 20.3018C6.42502 20.561 5.96208 20.5373 5.67188 20.2471L3.75195 18.3271C3.4522 18.0273 3.43861 17.546 3.7207 17.2295L4.83887 15.9746L4.11621 14.2598L2.18652 13.7334C1.8389 13.6383 1.59781 13.3223 1.59766 12.9619V11.042C1.59766 10.6702 1.8538 10.3472 2.21582 10.2627L4.08984 9.8252L4.79395 8.0957L3.69629 6.74609C3.43794 6.42793 3.46213 5.9656 3.75195 5.67578L5.67188 3.75586C5.97146 3.45628 6.45296 3.44206 6.76953 3.72363L8.02832 4.84375L9.73926 4.12207L10.2461 2.19824C10.3386 1.8468 10.6561 1.60156 11.0195 1.60156H12.8955ZM11.1865 4.91016C11.1234 5.15011 10.9522 5.34691 10.7236 5.44336L8.18457 6.51367C7.90037 6.63347 7.57225 6.57997 7.3418 6.375L6.26953 5.4209L5.39355 6.29688L6.33398 7.4541C6.51807 7.68068 6.56409 7.99032 6.4541 8.26074L5.41602 10.8115C5.31819 11.0519 5.11009 11.23 4.85742 11.2891L3.19727 11.6768V12.3506L4.91309 12.8193C5.15005 12.884 5.34404 13.0539 5.43945 13.2803L6.50977 15.8184C6.6297 16.1029 6.57557 16.4316 6.37012 16.6621L5.41797 17.7305L6.29199 18.6045L7.45215 17.6602C7.67965 17.4749 7.99036 17.4284 8.26172 17.54L10.7627 18.5693C10.997 18.6657 11.1723 18.8676 11.2344 19.1133L11.6611 20.8018H12.335L12.7627 19.1143C12.8247 18.8695 12.9983 18.668 13.2314 18.5713L15.7764 17.5176C16.0315 17.4119 16.3232 17.4449 16.5479 17.6055C16.7977 17.7841 17.2481 18.1693 17.6045 18.4795C17.6451 18.5148 17.6847 18.5499 17.7236 18.584L18.5908 17.7168L17.6426 16.5986C17.4487 16.37 17.399 16.0514 17.5137 15.7744L18.5684 13.2295C18.6643 12.998 18.8629 12.8249 19.1055 12.7617L20.7979 12.3213V11.6641L19.1182 11.2363C18.8737 11.1742 18.6728 11.0005 18.5762 10.7676L17.5225 8.22266C17.408 7.94615 17.4573 7.62899 17.6504 7.40039L18.5918 6.28711L17.7148 5.41016L16.6113 6.35352C16.3831 6.54841 16.0647 6.5995 15.7871 6.48535L13.1885 5.41602C12.9568 5.32057 12.7834 5.12221 12.7197 4.87988L12.2783 3.20117H11.6357L11.1865 4.91016ZM11.999 8.20215C14.0978 8.20215 15.7988 9.90323 15.7988 12.002C15.7987 14.1005 14.0977 15.8018 11.999 15.8018C9.90048 15.8017 8.19938 14.1005 8.19922 12.002C8.19922 9.90329 9.90039 8.20225 11.999 8.20215ZM11.999 9.80176C10.784 9.80186 9.79883 10.7869 9.79883 12.002C9.79899 13.2168 10.7841 14.202 11.999 14.2021C13.214 14.2021 14.1991 13.2169 14.1992 12.002C14.1992 10.7869 13.2141 9.80176 11.999 9.80176Z" fill="#33363D"/>
</svg>
