<svg width="24" height="22" viewBox="0 0 24 22" fill="none" xmlns="http://www.w3.org/2000/svg">
<path d="M13.5089 0.229441C13.257 0.095391 12.9515 0.110457 12.7143 0.27039L4.96179 6.35751L2.38741 6.35944C1.07124 6.35944 0 7.2928 0 8.44553L0.0413354 13.5433C0.0413354 14.6911 1.11219 15.6252 2.42833 15.6252L5.00194 15.6267L12.7135 21.7293C12.8412 21.8155 12.9918 21.8615 13.1458 21.8614C13.2702 21.8614 13.395 21.8313 13.5082 21.771C13.6322 21.7054 13.736 21.6072 13.8083 21.487C13.8807 21.3668 13.9189 21.2291 13.9188 21.0888V0.911668C13.9188 0.771474 13.8806 0.633935 13.8084 0.513762C13.7362 0.39359 13.6327 0.295328 13.5089 0.229441ZM12.3736 19.6351L5.67109 14.214C5.54351 14.1279 5.39309 14.0818 5.23916 14.0818L2.42913 14.0803C1.93311 14.0803 1.58697 13.7975 1.58697 13.5379L1.54566 8.43976C1.54566 8.18672 1.89179 7.90471 2.38821 7.90471L5.19863 7.90278C5.35223 7.90269 5.50232 7.85682 5.62973 7.77103L12.3736 2.36266V19.6351ZM20.1238 11.1331C20.1238 9.08067 18.713 7.35615 16.7698 7.03165C16.3422 6.96095 15.9505 7.24567 15.8801 7.66677C15.8098 8.08746 16.0945 8.48575 16.5148 8.55606C17.7298 8.75887 18.5785 9.81891 18.5785 11.1336C18.5785 12.3852 17.7005 13.468 16.4901 13.7095C16.0714 13.7925 15.7998 14.1993 15.8836 14.6181C15.9566 14.9855 16.2788 15.2397 16.6404 15.2397C16.6914 15.2398 16.7423 15.2347 16.7922 15.2246C18.7226 14.8398 20.1238 13.1188 20.1238 11.1332V11.1331ZM19.0985 4.0443C18.6994 3.89557 18.2532 4.0984 18.1049 4.49821C17.9554 4.89805 18.1586 5.34308 18.5584 5.49219C20.889 6.36176 22.4547 8.62864 22.4547 11.1331C22.4547 13.6387 20.889 15.9099 18.5599 16.7829C18.1601 16.9332 17.9577 17.3782 18.1072 17.7773C18.2235 18.0883 18.5179 18.2791 18.8308 18.2791C18.9233 18.2791 19.015 18.2625 19.1016 18.23C22.0314 17.1314 24 14.2792 24 11.1331C24 7.98697 22.0298 5.13831 19.0985 4.0443Z" fill="#8A949E"/>
</svg>
