<svg width="24" height="24" viewBox="0 0 24 24" fill="none" xmlns="http://www.w3.org/2000/svg">
<rect width="20" height="20" rx="10" transform="matrix(1 0 0 -1 2 22)" fill="#0B78CB"/>
<path d="M11.8992 9.43906C12.562 9.43906 13.0992 8.9018 13.0992 8.23906C13.0992 7.57632 12.562 7.03906 11.8992 7.03906C11.2365 7.03906 10.6992 7.57632 10.6992 8.23906C10.6992 8.9018 11.2365 9.43906 11.8992 9.43906Z" fill="white"/>
<path d="M10.3992 10.4292C10.2888 10.4292 10.1992 10.5187 10.1992 10.6292V11.4292C10.1992 11.5397 10.2888 11.6292 10.3992 11.6292H11.1008C11.2112 11.6292 11.3008 11.7187 11.3008 11.8292V15.5918H10.2C10.0895 15.5918 10 15.6813 10 15.7918V16.5918C10 16.7023 10.0895 16.7918 10.2 16.7918H13.8C13.9105 16.7918 14 16.7023 14 16.5918V15.7918C14 15.6813 13.9105 15.5918 13.8 15.5918H13.1008V10.6292C13.1008 10.5187 13.0112 10.4292 12.9008 10.4292H10.3992Z" fill="white"/>
</svg>
