<svg width="24" height="24" viewBox="0 0 24 24" fill="none" xmlns="http://www.w3.org/2000/svg">
<path fill-rule="evenodd" clip-rule="evenodd" d="M3.00098 3.8C3.00098 3.35817 3.35915 3 3.80098 3H19.2002C20.1943 3 21.0002 3.80589 21.0002 4.8V7.99922C21.0002 8.99333 20.1943 9.79922 19.2002 9.79922H9.8002V19.1992C9.8002 20.1933 8.99431 20.9992 8.0002 20.9992H4.80098C3.80686 20.9992 3.00098 20.1933 3.00098 19.1992V3.8ZM9.33157 8.19922H19.2002C19.3107 8.19922 19.4002 8.10968 19.4002 7.99922V4.8C19.4002 4.68954 19.3107 4.6 19.2002 4.6H5.73235L9.33157 8.19922ZM4.60098 5.73137V19.1992C4.60098 19.3097 4.69052 19.3992 4.80098 19.3992H8.0002C8.11065 19.3992 8.2002 19.3097 8.2002 19.1992V9.33059L4.60098 5.73137Z" fill="#33363D"/>
</svg>
