<svg width="24" height="24" viewBox="0 0 24 24" fill="none" xmlns="http://www.w3.org/2000/svg">
<path d="M12 2C17.5228 2 22 6.4772 22 12C22 12.9415 21.8701 13.8542 21.626 14.7197C21.5467 15.0005 21.3203 15.2154 21.0361 15.2812C20.7517 15.347 20.4533 15.2529 20.2588 15.0352C19.5801 14.2759 18.5956 13.7998 17.499 13.7998C15.4557 13.7999 13.7988 15.4566 13.7988 17.5C13.7989 18.5965 14.275 19.5811 15.0342 20.2598C15.2518 20.4543 15.347 20.7517 15.2812 21.0361C15.2155 21.3205 14.9997 21.5467 14.7188 21.626C13.8535 21.8699 12.9412 22 12 22C6.47715 22 2 17.5229 2 12C2 6.4772 6.47715 2 12 2ZM12 3.59961C7.36081 3.59961 3.59961 7.36085 3.59961 12C3.59961 16.6392 7.36081 20.4004 12 20.4004C12.3463 20.4004 12.6876 20.3795 13.0225 20.3389C12.5012 19.5185 12.1993 18.5441 12.1992 17.5C12.1992 14.573 14.572 12.2003 17.499 12.2002C18.5432 12.2002 19.5174 12.5022 20.3379 13.0234C20.3786 12.6882 20.4004 12.3467 20.4004 12C20.4004 7.36085 16.6391 3.59961 12 3.59961ZM8.52441 14.4766C9.18707 14.4767 9.72461 15.0141 9.72461 15.6768C9.7245 16.3393 9.187 16.8768 8.52441 16.877C7.86174 16.877 7.32432 16.3394 7.32422 15.6768C7.32422 15.014 7.86167 14.4766 8.52441 14.4766ZM7.17676 9.4541C7.83934 9.45421 8.37685 9.99171 8.37695 10.6543C8.37695 11.317 7.83941 11.8544 7.17676 11.8545C6.51402 11.8545 5.97656 11.317 5.97656 10.6543C5.97667 9.99164 6.51408 9.4541 7.17676 9.4541ZM15.876 7.12305C16.5385 7.12315 17.076 7.65972 17.0762 8.32227C17.0762 8.98494 16.5386 9.52236 15.876 9.52246C15.2132 9.52246 14.6758 8.98501 14.6758 8.32227C14.6759 7.65966 15.2133 7.12305 15.876 7.12305ZM10.8525 5.77637C11.5152 5.77647 12.0527 6.31389 12.0527 6.97656C12.0526 7.63915 11.5151 8.17665 10.8525 8.17676C10.1899 8.17676 9.65245 7.63921 9.65234 6.97656C9.65234 6.31382 10.1898 5.77637 10.8525 5.77637Z" fill="#33363D"/>
</svg>
