<svg width="24" height="24" viewBox="0 0 24 24" fill="none" xmlns="http://www.w3.org/2000/svg">
<path fill-rule="evenodd" clip-rule="evenodd" d="M4.59902 4.6V7C4.59902 7.44183 4.24085 7.8 3.79902 7.8C3.3572 7.8 2.99902 7.44183 2.99902 7V4.3C2.99902 3.58203 3.58105 3 4.29902 3H19.6987C20.4167 3 20.9987 3.58203 20.9987 4.3V7C20.9987 7.44183 20.6406 7.8 20.1987 7.8C19.7569 7.8 19.3987 7.44183 19.3987 7V4.6H12.7992L12.8 19.3997H16.1982C16.6401 19.3997 16.9982 19.7579 16.9982 20.1997C16.9982 20.6415 16.6401 20.9997 16.1982 20.9997H7.79824C7.35641 20.9997 6.99824 20.6415 6.99824 20.1997C6.99824 19.7579 7.35641 19.3997 7.79824 19.3997H11.2L11.1992 4.6H4.59902Z" fill="#33363D"/>
</svg>
