<svg width="24" height="24" viewBox="0 0 24 24" fill="none" xmlns="http://www.w3.org/2000/svg">
<path d="M20.2002 3C20.6419 3.00011 20.9999 3.35813 21 3.7998V11.7998C21 12.2416 20.6419 12.5995 20.2002 12.5996C19.7584 12.5996 19.4004 12.2416 19.4004 11.7998V5.71484L5.54785 19.3984H11.7998C12.2416 19.3984 12.5996 19.7564 12.5996 20.1982C12.5995 20.64 12.2416 20.998 11.7998 20.998H3.7998C3.35813 20.9979 3.00011 20.6399 3 20.1982V12.1982C3 11.7565 3.35807 11.3985 3.7998 11.3984C4.24163 11.3984 4.59961 11.7564 4.59961 12.1982V18.085L18.252 4.59961H12.2002C11.7584 4.59961 11.4004 4.24163 11.4004 3.7998C11.4005 3.35807 11.7584 3 12.2002 3H20.2002Z" fill="#33363D"/>
</svg>
