<svg width="24" height="24" viewBox="0 0 24 24" fill="none" xmlns="http://www.w3.org/2000/svg">
<path d="M19.8672 13.8682C20.0881 13.8682 20.2676 14.0476 20.2676 14.2686V16.4824H20.7988C21.0197 16.4824 21.1992 16.661 21.1992 16.8818V17.376C21.1992 17.5969 21.0197 17.7764 20.7988 17.7764H20.2676V20.8008C20.2673 21.0215 20.088 21.2002 19.8672 21.2002H19.1768C18.956 21.2002 18.7766 21.0215 18.7764 20.8008V14.2686C18.7764 14.0476 18.9558 13.8682 19.1768 13.8682H19.8672ZM20.2666 17.5762C20.1561 17.5762 20.0664 17.6659 20.0664 17.7764V20.8008C20.0663 20.8975 19.9975 20.9776 19.9062 20.9961H19.9072C19.9984 20.9776 20.0672 20.8974 20.0674 20.8008V17.7764C20.0674 17.6659 20.1571 17.5762 20.2676 17.5762H20.2666ZM17.9883 14.5654C18.2078 14.5654 18.391 14.744 18.3857 14.9697C18.3616 15.9849 18.1542 16.9392 17.665 17.7871C17.175 18.6364 16.4101 19.3664 15.2939 19.9434C15.1191 20.0337 14.9066 19.9808 14.792 19.8252L14.418 19.3174C14.2697 19.116 14.3424 18.8368 14.5547 18.7227C15.8933 18.0034 16.6252 17.1047 16.8496 15.8594H15.0547C14.8339 15.8592 14.6553 15.6798 14.6553 15.459V14.9648C14.6555 14.7442 14.834 14.5656 15.0547 14.5654H17.9883ZM17.9873 14.7656C18.0978 14.7656 18.1882 14.8554 18.1855 14.9658C18.1383 16.948 17.3746 18.6421 15.2012 19.7656C15.1797 19.7767 15.1566 19.7825 15.1338 19.7852C15.157 19.7826 15.1804 19.7769 15.2021 19.7656C17.3758 18.6421 18.1394 16.9472 18.1865 14.9648C18.189 14.8546 18.0986 14.7656 17.9883 14.7656H17.9873ZM11.999 3.80078C14.7286 3.80078 17.1549 5.05919 18.8789 6.51465C19.7448 7.24564 20.4566 8.04446 20.958 8.79785C21.438 9.51909 21.7988 10.3089 21.7988 11.001C21.7988 11.5034 21.6113 12.0074 21.3506 12.4619C21.1307 12.8451 20.641 12.9777 20.2578 12.7578C19.8749 12.538 19.7425 12.0491 19.9619 11.666C20.1477 11.3422 20.1992 11.1186 20.1992 11.001C20.1992 10.793 20.0569 10.3321 19.626 9.68457C19.2165 9.06928 18.6094 8.38123 17.8467 7.7373C16.3134 6.44286 14.2398 5.40039 11.999 5.40039C9.75822 5.40045 7.68465 6.44285 6.15137 7.7373C5.38868 8.38121 4.7815 9.06931 4.37207 9.68457C3.94127 10.332 3.79883 10.7931 3.79883 11.001C3.79892 11.209 3.94131 11.6701 4.37207 12.3174C4.78152 12.9326 5.38867 13.6208 6.15137 14.2646C7.68464 15.5591 9.75827 16.6005 11.999 16.6006C12.4407 16.6006 12.7986 16.9587 12.7988 17.4004C12.7988 17.8422 12.4409 18.2012 11.999 18.2012C9.26946 18.2011 6.84313 16.9427 5.11914 15.4873C4.2532 14.7562 3.54144 13.9566 3.04004 13.2031C2.56025 12.482 2.19929 11.6929 2.19922 11.001C2.19922 10.3089 2.56008 9.51909 3.04004 8.79785C3.54142 8.04443 4.25326 7.24568 5.11914 6.51465C6.84314 5.05918 9.26941 3.80084 11.999 3.80078ZM19.8662 14.0684C19.9767 14.0684 20.0664 14.1581 20.0664 14.2686V16.4824C20.0666 16.5927 20.1562 16.6826 20.2666 16.6826H20.7979C20.9082 16.6826 20.9979 16.7715 20.998 16.8818V17.376C20.998 17.4864 20.9083 17.5762 20.7979 17.5762H20.7988C20.9093 17.5762 20.999 17.4864 20.999 17.376V16.8818C20.999 16.7714 20.9093 16.6816 20.7988 16.6816H20.2676C20.1573 16.6816 20.0676 16.5927 20.0674 16.4824V14.2686C20.0674 14.1581 19.9776 14.0684 19.8672 14.0684H19.8662ZM11.999 6.96094C14.2737 6.96094 16.1738 8.73928 16.1738 11.001C16.1737 13.2626 14.2737 15.041 11.999 15.041C9.72448 15.0409 7.82433 13.2625 7.82422 11.001C7.82422 8.73935 9.72441 6.96104 11.999 6.96094ZM11.999 8.56055C10.5459 8.56065 9.42383 9.68393 9.42383 11.001C9.42394 12.3179 10.546 13.4403 11.999 13.4404C13.4522 13.4404 14.5741 12.318 14.5742 11.001C14.5742 9.68387 13.4522 8.56055 11.999 8.56055Z" fill="#33363D"/>
</svg>
