<svg width="24" height="24" viewBox="0 0 24 24" fill="none" xmlns="http://www.w3.org/2000/svg">
<path d="M11.9982 5.69922C16.5176 5.69922 20.5841 8.18141 21.8546 11.5566C21.979 11.8875 21.997 12.2588 21.8849 12.6133C21.11 15.0612 18.0559 18.2988 11.9982 18.2988C5.9168 18.2987 2.92075 14.7457 2.13488 12.6406C2.00683 12.2975 2.00547 11.9306 2.11144 11.5977C2.66333 9.86411 4.0396 8.39054 5.78332 7.36035C7.53511 6.32543 9.71854 5.6993 11.9982 5.69922ZM11.9982 7.29883C10.0026 7.29891 8.10015 7.84916 6.59679 8.7373C5.08531 9.63029 4.03672 10.8272 3.63683 12.083C3.63651 12.084 3.63602 12.0852 3.63585 12.0859C4.20504 13.6032 6.62813 16.699 11.9982 16.6992C17.4325 16.6992 19.8163 13.8455 20.3595 12.1318L20.3566 12.1201C19.3773 9.51853 16.0276 7.29883 11.9982 7.29883ZM11.9991 8.19922C14.0978 8.19922 15.7988 9.90043 15.7989 11.999C15.7989 14.0977 14.0978 15.7988 11.9991 15.7988C9.90054 15.7987 8.19933 14.0976 8.19933 11.999C8.19944 9.9005 9.90061 8.19932 11.9991 8.19922ZM11.9991 9.79883C10.7843 9.79893 9.79905 10.7842 9.79894 11.999C9.79894 13.214 10.7842 14.1991 11.9991 14.1992C13.2142 14.1992 14.1993 13.214 14.1993 11.999C14.1992 10.7841 13.2141 9.79883 11.9991 9.79883Z" fill="#33363D"/>
</svg>
